{"title":"Sinead O'Connor [Live] 1988-1990 DVDRip x264 AC3 5.1 titler","uid":14697881,"size":1273979540,"categoryP":"video","categoryS":"movies","magnet":"?xt=urn:btih:f42296c5c2d85cc75615bc49ec057ed6878d8ac8&amp;dn=Sinead+O%27Connor+%5BLive%5D+1988-1990+DVDRip+x264+AC3+5.1+titler&amp;tr=udp%3A%2F%2Ftracker.leechers-paradise.org%3A6969&amp;tr=udp%3A%2F%2Fzer0day.ch%3A1337&amp;tr=udp%3A%2F%2Fopen.demonii.com%3A1337&amp;tr=udp%3A%2F%2Ftracker.coppersurfer.tk%3A6969&amp;tr=udp%3A%2F%2Fexodus.desync.com%3A6969","seeders":2,"leechers":0,"uploader":"movieZ.freak","files":5,"time":1464264331,"description":"SOURCE: FULL DVD9 PAL [Digitally Remastered]\r\n\r\n\r\nSinéad O'Connor - The Value Of Ignorance 1988 + The Year Of The Horse 1990\r\n\r\n  \nhttp://www.imdb.com/title/tt0221681/\r\n  \nhttp://www.imdb.com/title/tt1363138/\r\n\r\n \nhttp://en.wikipedia.org/wiki/The_Value_of_Ignorance\r\n  \nhttp://en.wikipedia.org/wiki/The_Year_of_the_Horse\r\n\r\n\r\n\r\nDVD COVER - MENU SCREENSHOTS:\r\n------------------------------- \nhttps://someimage.com/PeC9\r\n\r\n\r\n\r\nSCREENSHOTS:\r\n-----------------------  \nhttps://someimage.com/IKhS\r\n\r\n\r\nNOTE: The Value Of Ignorance 1988:\r\n----------------------------------------------\r\nThe video is a piece of 'experimental artwork', different types of video effects between cuts from one song to another.\r\n\r\n\r\n\r\nINFO:\r\n--------\r\n'The Value of Ignorance' is taken from a live recording on June 3rd 1988 at The Dominion Theatre in London and 'The Year of The Horse' was recorded over two nights in October 1990 at the Forest National in Brussels and Ahoysportpaleis in Rotterdam. Full Description 'The Value of Ignorance' mostly covers material from O'Connor's sensational 1987 debut album The Lion &amp; the Cobra, where she synthesized her influences into her own ethereal, atmospheric sound, enveloped in tortured passion.\r\n\r\n\r\n/////////////////////////////////////\r\nThe Value Of Ignorance:\r\n////////////////////////////////////\r\n01 - Jackie\r\n02 - Just Like U Said It Would B\r\n03 - Mandinka\r\n04 - Just Call Me Joe\r\n05 - Never Get Old\r\n06 - Jerusalem\r\n07 - Troy\r\n08 - I Am Stretched On Your Grave\r\n\r\n//////////////////////////////////////\r\nThe Year Of The Horse:\r\n/////////////////////////////////////\r\n\r\n01 - Feel So Different\r\n02 - The Emperor's New Clothes\r\n03 - I Want Your (Hands On Me)\r\n04 - Three Babies\r\n05 - Black Boys On Mopeds\r\n06 - Irish Ways\r\n07 - I Am Stretched On Your Grave\r\n08 - The Last Day Of Our Acquaintance\r\n09 - Nothing Compares 2 U\r\n10 - Jump In The River\r\n11 - Jerusalem\r\n12 - Troy\r\n\r\n-------------------------------------------------------\r\n- Res: 720 x 540\r\n\r\n- AR: 4:3\r\n\r\n- FPS: 25.000 fps\r\n\r\n- Audio: AC3, 6 channels, 448Kbps\r\n-------------------------------------------------------\r\n\r\n**********************************\r\n\r\nThe Value Of Ignorance 1988\r\n\r\nDuration : 37mn 8s\r\n\r\n**********************************\r\n\r\nGeneral\r\n------------\r\nFormat : Matroska\r\nFormat version : Version 4 / Version 2\r\nFile size : 400 MiB\r\nDuration : 37mn 8s\r\nOverall bit rate : 1505 Kbps\r\nEncoded date : UTC 2016-05-23 15:07:55\r\nWriting application : mkvmerge v9.1.0 ('Little Earthquakes') 64bit\r\nWriting library : libebml v1.3.3 + libmatroska v1.4.4\r\n\r\nVideo\r\n------------\r\nFormat : AVC\r\nFormat/Info : Advanced Video Codec\r\nFormat profile :   \r\nFormat settings, CABAC : Yes\r\nFormat settings, ReFrames : 5 frames\r\nCodec ID : V_MPEG4/ISO/AVC\r\nDuration : 37mn 8s\r\nBit rate : 1088 Kbps\r\nWidth : 720 pixels\r\nHeight : 540 pixels\r\nDisplay aspect ratio : 4:3\r\nFrame rate mode : Constant\r\nFrame rate : 25.000 fps\r\nColor space : YUV\r\nChroma subsampling : 4:2:0\r\nBit depth : 8 bits\r\nScan type : Progressive\r\nBits/(Pixel*Frame) : 0.106\r\nStream size : 273 MiB (68%)\r\nWriting library : x264 core 142 r2479 dd79a61\r\nEncoding settings : cabac=1 / ref=5\r\nDefault : Yes\r\nForced : No\r\n\r\nAudio\r\n------------\r\nFormat : AC-3\r\nFormat/Info : Audio Coding 3\r\nMode extension : CM (complete main)\r\nFormat settings, Endianness : Big\r\nCodec ID : A_AC3\r\nDuration : 37mn 8s\r\nBit rate mode : Constant\r\nBit rate : 448 Kbps\r\nChannel(s) : 6 channels\r\nChannel positions : Front: L C R, Side: L R, LFE\r\nSampling rate : 48.0 KHz\r\nBit depth : 16 bits\r\nCompression mode : Lossy\r\nStream size : 119 MiB (30%)\r\nTitle : Surround\r\nLanguage : English\r\nDefault : Yes\r\nForced : No\r\n\r\n****************************************\r\n\r\nThe Year Of The Horse 1990\r\n\r\nDuration : 1h 7mn\r\n\r\n****************************************\r\n\r\nGeneral\r\n------------\r\nFormat : Matroska\r\nFormat version : Version 4 / Version 2\r\nFile size : 799 MiB\r\nDuration : 1h 7mn\r\nOverall bit rate : 1662 Kbps\r\nEncoded date : UTC 2016-05-23 13:18:05\r\nWriting application : mkvmerge v9.1.0 ('Little Earthquakes') 64bit\r\nWriting library : libebml v1.3.3 + libmatroska v1.4.4\r\n\r\nVideo\r\n--------\r\nFormat : AVC\r\nFormat/Info : Advanced Video Codec\r\nFormat profile :   \r\nFormat settings, CABAC : Yes\r\nFormat settings, ReFrames : 5 frames\r\nCodec ID : V_MPEG4/ISO/AVC\r\nDuration : 1h 7mn\r\nBit rate : 1229 Kbps\r\nWidth : 720 pixels\r\nHeight : 540 pixels\r\nDisplay aspect ratio : 4:3\r\nFrame rate mode : Constant\r\nFrame rate : 25.000 fps\r\nColor space : YUV\r\nChroma subsampling : 4:2:0\r\nBit depth : 8 bits\r\nScan type : Progressive\r\nBits/(Pixel*Frame) : 0.126\r\nStream size : 568 MiB (71%)\r\nWriting library : x264 core 142 r2479 dd79a61\r\nEncoding settings : cabac=1 / ref=5\r\nDefault : Yes\r\nForced : No\r\n\r\nAudio\r\n----------\r\nFormat : AC-3\r\nFormat/Info : Audio Coding 3\r\nMode extension : CM (complete main)\r\nFormat settings, Endianness : Big\r\nCodec ID : A_AC3\r\nDuration : 1h 7mn\r\nBit rate mode : Constant\r\nBit rate : 448 Kbps\r\nChannel(s) : 6 channels\r\nChannel positions : Front: L C R, Side: L R, LFE\r\nSampling rate : 48.0 KHz\r\nBit depth : 16 bits\r\nCompression mode : Lossy\r\nStream size : 216 MiB (27%)\r\nTitle : Surround\r\nLanguage : English\r\nDefault : Yes\r\nForced : No","torrent":{"xt":"urn:btih:f42296c5c2d85cc75615bc49ec057ed6878d8ac8","amp;dn":"Sinead+O%27Connor+%5BLive%5D+1988-1990+DVDRip+x264+AC3+5.1+titler","amp;tr":["udp%3A%2F%2Ftracker.leechers-paradise.org%3A6969","udp%3A%2F%2Fzer0day.ch%3A1337","udp%3A%2F%2Fopen.demonii.com%3A1337","udp%3A%2F%2Ftracker.coppersurfer.tk%3A6969","udp%3A%2F%2Fexodus.desync.com%3A6969"],"infoHash":"f42296c5c2d85cc75615bc49ec057ed6878d8ac8","infoHashBuffer":{"type":"Buffer","data":[244,34,150,197,194,216,92,199,86,21,188,73,236,5,126,214,135,141,138,200]},"announce":[],"urlList":[]}}